<svg viewBox="0 0 36 36" xmlns="http://www.w3.org/2000/svg">
  <!-- Contour difference: two nested contour-line sets (blue = baseline, red = comparison)
       offset from each other to show the shift/difference between them -->
  <g fill="none" stroke-linejoin="round">
    <!-- Baseline contours (cool/blue), centered slightly upper-left -->
    <path d="M14,5 C20,5 24,9 24,14 C24,19 20,22 14,22 C9,22 5,19 5,14 C5,9 9,5 14,5 Z"
          stroke="#9ecae1" stroke-width="1.6"/>
    <path d="M14,8 C18,8 21,10.5 21,14 C21,17.5 18,19 14,19 C10.5,19 8,17.5 8,14 C8,10.5 10.5,8 14,8 Z"
          stroke="#4292c6" stroke-width="1.6"/>
    <path d="M14,11 C16.5,11 18,12.3 18,14 C18,15.7 16.5,17 14,17 C11.8,17 10,15.7 10,14 C10,12.3 11.8,11 14,11 Z"
          stroke="#084594" stroke-width="1.6"/>

    <!-- Comparison contours (warm/red), centered slightly lower-right, showing the difference -->
    <path d="M22,14 C28,14 32,18 32,23 C32,28 28,31 22,31 C17,31 13,28 13,23 C13,18 17,14 22,14 Z"
          stroke="#fcae91" stroke-width="1.6"/>
    <path d="M22,17 C26,17 29,19.5 29,23 C29,26.5 26,28 22,28 C18.5,28 16,26.5 16,23 C16,19.5 18.5,17 22,17 Z"
          stroke="#fb6a4a" stroke-width="1.6"/>
    <path d="M22,20 C24.5,20 26,21.3 26,23 C26,24.7 24.5,26 22,26 C19.8,26 18,24.7 18,23 C18,21.3 19.8,20 22,20 Z"
          stroke="#cb181d" stroke-width="1.6"/>
  </g>

  <!-- Gear icon overlay -->
  <g transform="translate(17.5, 17.5) scale(0.62) translate(-25, -25)">
    <path d="M47.16,21.221l-5.91-0.966c-0.346-1.186-0.819-2.326-1.411-3.405l3.45-4.917c0.279-0.397,0.231-0.938-0.112-1.282 l-3.889-3.887c-0.347-0.346-0.893-0.391-1.291-0.104l-4.843,3.481c-1.089-0.602-2.239-1.08-3.432-1.427l-1.031-5.886 C28.607,2.35,28.192,2,27.706,2h-5.5c-0.49,0-0.908,0.355-0.987,0.839l-0.956,5.854c-1.2,0.345-2.352,0.818-3.437,1.412l-4.83-3.45 c-0.399-0.285-0.942-0.239-1.289,0.106L6.82,10.648c-0.343,0.343-0.391,0.883-0.112,1.28l3.399,4.863 c-0.605,1.095-1.087,2.254-1.438,3.46l-5.831,0.971c-0.482,0.08-0.836,0.498-0.836,0.986v5.5c0,0.485,0.348,0.9,0.825,0.985 l5.831,1.034c0.349,1.203,0.831,2.362,1.438,3.46l-3.441,4.813c-0.284,0.397-0.239,0.942,0.106,1.289l3.888,3.891 c0.343,0.343,0.884,0.391,1.281,0.112l4.87-3.411c1.093,0.601,2.248,1.078,3.445,1.424l0.976,5.861C21.3,47.647,21.717,48,22.206,48 h5.5c0.485,0,0.9-0.348,0.984-0.825l1.045-5.89c1.199-0.353,2.348-0.833,3.43-1.435l4.905,3.441 c0.398,0.281,0.938,0.232,1.282-0.111l3.888-3.891c0.346-0.347,0.391-0.894,0.104-1.292l-3.498-4.857 c0.593-1.08,1.064-2.222,1.407-3.408l5.918-1.039c0.479-0.084,0.827-0.5,0.827-0.985v-5.5C47.999,21.718,47.644,21.3,47.16,21.221z M25,32c-3.866,0-7-3.134-7-7c0-3.866,3.134-7,7-7s7,3.134,7,7C32,28.866,28.866,32,25,32z" fill="#55ACEE" fill-opacity="0.8" stroke="black" stroke-width="0.75"/>
  </g>
</svg>
