<svg width="800px" height="800px" viewBox="0 0 36 36" xmlns="http://www.w3.org/2000/svg" xmlns:xlink="http://www.w3.org/1999/xlink" aria-hidden="true" role="img" preserveAspectRatio="xMidYMid meet">
  <!-- Background rectangle -->
  
  <!-- Heat map grid -->
  <g>
    <!-- Row 1 -->
    <rect x="4" y="4" width="5" height="5" fill="#ffffcc" stroke="#dddddd" stroke-width="0.5"/>
    <rect x="9" y="4" width="5" height="5" fill="#ffeda0" stroke="#dddddd" stroke-width="0.5"/>
    <rect x="14" y="4" width="5" height="5" fill="#fed976" stroke="#dddddd" stroke-width="0.5"/>
    <rect x="19" y="4" width="5" height="5" fill="#feb24c" stroke="#dddddd" stroke-width="0.5"/>
    <rect x="24" y="4" width="5" height="5" fill="#fd8d3c" stroke="#dddddd" stroke-width="0.5"/>
    <rect x="29" y="4" width="5" height="5" fill="#fc4e2a" stroke="#dddddd" stroke-width="0.5"/>
    
    <!-- Row 2 -->
    <rect x="4" y="9" width="5" height="5" fill="#ffeda0" stroke="#dddddd" stroke-width="0.5"/>
    <rect x="9" y="9" width="5" height="5" fill="#fed976" stroke="#dddddd" stroke-width="0.5"/>
    <rect x="14" y="9" width="5" height="5" fill="#feb24c" stroke="#dddddd" stroke-width="0.5"/>
    <rect x="19" y="9" width="5" height="5" fill="#fd8d3c" stroke="#dddddd" stroke-width="0.5"/>
    <rect x="24" y="9" width="5" height="5" fill="#e31a1c" stroke="#dddddd" stroke-width="0.5"/>
    <rect x="29" y="9" width="5" height="5" fill="#bd0026" stroke="#dddddd" stroke-width="0.5"/>
    
    <!-- Row 3 -->
    <rect x="4" y="14" width="5" height="5" fill="#fed976" stroke="#dddddd" stroke-width="0.5"/>
    <rect x="9" y="14" width="5" height="5" fill="#feb24c" stroke="#dddddd" stroke-width="0.5"/>
    <rect x="14" y="14" width="5" height="5" fill="#fd8d3c" stroke="#dddddd" stroke-width="0.5"/>
    <rect x="19" y="14" width="5" height="5" fill="#fc4e2a" stroke="#dddddd" stroke-width="0.5"/>
    <rect x="24" y="14" width="5" height="5" fill="#e31a1c" stroke="#dddddd" stroke-width="0.5"/>
    <rect x="29" y="14" width="5" height="5" fill="#b10026" stroke="#dddddd" stroke-width="0.5"/>
    
    <!-- Row 4 -->
    <rect x="4" y="19" width="5" height="5" fill="#feb24c" stroke="#dddddd" stroke-width="0.5"/>
    <rect x="9" y="19" width="5" height="5" fill="#fd8d3c" stroke="#dddddd" stroke-width="0.5"/>
    <rect x="14" y="19" width="5" height="5" fill="#fc4e2a" stroke="#dddddd" stroke-width="0.5"/>
    <rect x="19" y="19" width="5" height="5" fill="#e31a1c" stroke="#dddddd" stroke-width="0.5"/>
    <rect x="24" y="19" width="5" height="5" fill="#bd0026" stroke="#dddddd" stroke-width="0.5"/>
    <rect x="29" y="19" width="5" height="5" fill="#800026" stroke="#dddddd" stroke-width="0.5"/>
    
    <!-- Row 5 -->
    <rect x="4" y="24" width="5" height="5" fill="#fd8d3c" stroke="#dddddd" stroke-width="0.5"/>
    <rect x="9" y="24" width="5" height="5" fill="#fc4e2a" stroke="#dddddd" stroke-width="0.5"/>
    <rect x="14" y="24" width="5" height="5" fill="#e31a1c" stroke="#dddddd" stroke-width="0.5"/>
    <rect x="19" y="24" width="5" height="5" fill="#bd0026" stroke="#dddddd" stroke-width="0.5"/>
    <rect x="24" y="24" width="5" height="5" fill="#800026" stroke="#dddddd" stroke-width="0.5"/>
    <rect x="29" y="24" width="5" height="5" fill="#67000d" stroke="#dddddd" stroke-width="0.5"/>
    
    <!-- Row 6 -->
    <rect x="4" y="29" width="5" height="5" fill="#fc4e2a" stroke="#dddddd" stroke-width="0.5"/>
    <rect x="9" y="29" width="5" height="5" fill="#e31a1c" stroke="#dddddd" stroke-width="0.5"/>
    <rect x="14" y="29" width="5" height="5" fill="#bd0026" stroke="#dddddd" stroke-width="0.5"/>
    <rect x="19" y="29" width="5" height="5" fill="#800026" stroke="#dddddd" stroke-width="0.5"/>
    <rect x="24" y="29" width="5" height="5" fill="#67000d" stroke="#dddddd" stroke-width="0.5"/>
    <rect x="29" y="29" width="5" height="5" fill="#4d0000" stroke="#dddddd" stroke-width="0.5"/>
  </g>
</svg>
