<svg width="800px" height="800px" viewBox="0 0 36 36" xmlns="http://www.w3.org/2000/svg" xmlns:xlink="http://www.w3.org/1999/xlink" aria-hidden="true" role="img" class="iconify iconify--twemoji" preserveAspectRatio="xMidYMid meet">
  <!-- Original Folder -->
  <path fill="#269" d="M0 29a4 4 0 0 0 4 4h24a4 4 0 0 0 4-4V12a4 4 0 0 0-4-4h-9c-3.562 0-3-5-8.438-5H4a4 4 0 0 0-4 4v22z"></path>
  <path fill="#55ACEE" d="M32.336 12h-6.562c-5.438 0-5.383 5-8.945 5h-9c-2.209 0-4.182 1.791-4.406 4l-.493 3.874L2.406 29l-.02-.002c-.116.607-.672.999-1.3.999c-.643 0-1.106-.507-1.074-1.144C.01 28.903 0 28.95 0 29a3.989 3.989 0 0 0 3.4 3.939c.177.038.371.061.6.061h26c2.209 0 4.182-1.791 4.406-4l1.523-13c.225-2.209-1.384-4-3.593-4z"></path>
  
  <!-- Minus Symbol -->
  <circle cx="18" cy="20" r="8" fill="white" opacity="0.85"></circle>
  <path d="M12 20h12" stroke="#269" stroke-width="2.5" stroke-linecap="round"></path>
</svg>
