<?xml version="1.0" encoding="UTF-8"?>
<svg xmlns="http://www.w3.org/2000/svg" xmlns:xlink="http://www.w3.org/1999/xlink" width="26px" height="26px" viewBox="0 0 26 26" version="1.1">
<g id="surface1">
<path style=" stroke:none;fill-rule:nonzero;fill:rgb(0%,0%,0%);fill-opacity:1;" d="M 22.511719 10.988281 L 19.023438 8.972656 L 19.023438 11.730469 L 14.269531 11.730469 L 14.269531 6.976562 L 17.027344 6.976562 L 15.011719 3.488281 L 13 0 L 10.988281 3.488281 L 8.972656 6.976562 L 11.730469 6.976562 L 11.730469 11.730469 L 6.976562 11.730469 L 6.976562 8.972656 L 3.488281 10.988281 L 0 13 L 3.488281 15.011719 L 6.976562 17.027344 L 6.976562 14.269531 L 11.730469 14.269531 L 11.730469 19.023438 L 8.972656 19.023438 L 10.988281 22.511719 L 13 26 L 15.011719 22.511719 L 17.027344 19.023438 L 14.269531 19.023438 L 14.269531 14.269531 L 19.023438 14.269531 L 19.023438 17.027344 L 22.511719 15.011719 L 26 13 Z M 22.511719 10.988281 "/>
</g>
</svg>
