<?xml version="1.0" encoding="UTF-8"?>
<svg xmlns="http://www.w3.org/2000/svg" xmlns:xlink="http://www.w3.org/1999/xlink" width="26px" height="26px" viewBox="0 0 26 26" version="1.1">
<g id="surface1">
<path style="fill:none;stroke-width:2;stroke-linecap:round;stroke-linejoin:round;stroke:rgb(0%,0%,0%);stroke-opacity:1;stroke-miterlimit:4;" d="M 4.060096 12.998798 C 4.020433 12.670673 3.998798 12.338942 3.998798 12 C 3.998798 7.582933 7.582933 3.998798 12 3.998798 C 14.498798 3.998798 16.734375 5.149038 18.201923 6.944712 M 19.936298 11.001202 C 19.979567 11.329327 20.001202 11.661058 20.001202 12 C 20.001202 16.417067 16.417067 20.001202 12 20.001202 C 9.609375 20.001202 7.467548 18.951923 6 17.293269 M 9 17.001202 L 6 17.001202 L 6 17.293269 M 18.201923 3.998798 L 18.201923 6.944712 M 18.201923 6.944712 L 18.201923 6.998798 L 15.201923 6.998798 M 6 20.001202 L 6 17.293269 " transform="matrix(1.083333,0,0,1.083333,0,0)"/>
</g>
</svg>
