<svg xmlns="http://www.w3.org/2000/svg" viewBox="30 30 140 140">
  <!-- Icosahedron-based spherical wireframe with colors -->
  <g stroke="#333" stroke-width="0.8" transform="translate(100,100)">
    
    <!-- Front hemisphere triangles -->
    <path d="M0,-70 L60,-35 35,60 L0,-70" fill="#5D9CEC" />
    <path d="M0,-70 L-35,60 -60,-35 L0,-70" fill="#4FC1E9" />
    <path d="M60,-35 L35,60 70,0 L60,-35" fill="#48CFAD" />
    <path d="M-60,-35 L-70,0 -35,60 L-60,-35" fill="#A0D468" />
    <path d="M35,60 L0,35 70,0 L35,60" fill="#FFCE54" />
    <path d="M-35,60 L-70,0 0,35 L-35,60" fill="#FC6E51" />
    
    <!-- Equatorial triangles -->
    <path d="M60,-35 L70,0 0,-35 L60,-35" fill="#ED5565" />
    <path d="M-60,-35 L0,-35 -70,0 L-60,-35" fill="#AC92EC" />
    <path d="M70,0 L0,35 0,-35 L70,0" fill="#EC87C0" />
    <path d="M-70,0 L0,-35 0,35 L-70,0" fill="#CCD1D9" />
    <path d="M35,60 L0,35 -35,60 L35,60" fill="#F5F7FA" />
    <path d="M35,60 L-35,60 0,70 L35,60" fill="#AAB2BD" />

    
    <!-- Vertex markers -->
    <circle cx="0" cy="-70" r="2" fill="#333" />
    <circle cx="60" cy="-35" r="1.5" fill="#333" />
    <circle cx="-60" cy="-35" r="1.5" fill="#333" />
    <circle cx="35" cy="60" r="1.5" fill="#333" />
    <circle cx="-35" cy="60" r="1.5" fill="#333" />
  </g>
</svg>