<?xml version="1.0" encoding="UTF-8"?>
<svg xmlns="http://www.w3.org/2000/svg" xmlns:xlink="http://www.w3.org/1999/xlink" width="26px" height="26px" viewBox="0 0 26 26" version="1.1">
<g id="surface1">
<path style=" stroke:none;fill-rule:evenodd;fill:rgb(0%,0%,0%);fill-opacity:1;" d="M 10.9375 19.867188 C 5.824219 19.867188 1.683594 15.796875 1.683594 10.765625 C 1.683594 5.734375 5.824219 1.65625 10.9375 1.65625 C 16.046875 1.65625 20.191406 5.734375 20.191406 10.765625 C 20.191406 15.796875 16.046875 19.867188 10.9375 19.867188 Z M 25.746094 24.578125 L 19.035156 17.972656 C 20.792969 16.0625 21.871094 13.542969 21.871094 10.765625 C 21.871094 4.816406 16.976562 0 10.9375 0 C 4.894531 0 0 4.816406 0 10.765625 C 0 16.703125 4.894531 21.523438 10.9375 21.523438 C 13.546875 21.523438 15.941406 20.621094 17.820312 19.117188 L 24.558594 25.75 C 24.886719 26.074219 25.417969 26.074219 25.746094 25.75 C 26.074219 25.429688 26.074219 24.902344 25.746094 24.578125 Z M 15.046875 10.082031 L 11.800781 10.082031 L 11.800781 6.832031 C 11.800781 6.378906 11.4375 6.019531 10.988281 6.019531 C 10.539062 6.019531 10.175781 6.378906 10.175781 6.832031 L 10.175781 10.082031 L 6.929688 10.082031 C 6.480469 10.082031 6.117188 10.230469 6.117188 10.675781 C 6.117188 11.132812 6.480469 11.707031 6.929688 11.707031 L 10.175781 11.707031 L 10.175781 14.957031 C 10.175781 15.414062 10.539062 15.769531 10.988281 15.769531 C 11.4375 15.769531 11.800781 15.414062 11.800781 14.957031 L 11.800781 11.707031 L 15.046875 11.707031 C 15.496094 11.707031 15.859375 11.34375 15.859375 10.894531 C 15.859375 10.449219 15.496094 10.082031 15.046875 10.082031 Z M 15.046875 10.082031 "/>
</g>
</svg>
